<?xml version="1.0" encoding="utf-8"?>
<!-- Generator: Adobe Illustrator 16.0.0, SVG Export Plug-In . SVG Version: 6.00 Build 0)  -->
<!DOCTYPE svg PUBLIC "-//W3C//DTD SVG 1.1//EN" "http://www.w3.org/Graphics/SVG/1.1/DTD/svg11.dtd">
<svg version="1.1" id="Layer_1" xmlns="http://www.w3.org/2000/svg" xmlns:xlink="http://www.w3.org/1999/xlink" x="0px" y="0px"
	 width="841.9px" height="100px" viewBox="0 0 841.9 100" style="enable-background:new 0 0 841.9 100;" xml:space="preserve">
<style type="text/css">
<![CDATA[
	.st0{clip-path:url(#SVGID_2_);fill:#74C6BE;}
	.st1{clip-path:url(#SVGID_2_);fill:#42BDD8;}
	.st2{clip-path:url(#SVGID_2_);fill:#4CBBB4;}
	.st3{clip-path:url(#SVGID_2_);fill:#2FB6AA;}
	.st4{clip-path:url(#SVGID_2_);fill:#FFFFFF;}
	.st5{clip-path:url(#SVGID_2_);fill:#0075C2;}
	.st6{clip-path:url(#SVGID_2_);fill:#0099D9;}
	.st7{clip-path:url(#SVGID_2_);fill:#00AC97;}
	.st8{clip-path:url(#SVGID_2_);fill:#00ADA9;}
]]>
</style>
<g>
	<defs>
		<rect id="SVGID_1_" width="841.9" height="100"/>
	</defs>
	<clipPath id="SVGID_2_">
		<use xlink:href="#SVGID_1_"  style="overflow:visible;"/>
	</clipPath>
	<path class="st4" d="M348.7,71h-10.9v19.6c0,2,1.6,3.7,3.7,3.7H392v-7.8h-43.3V71z"/>
	<path class="st4" d="M391.5,26c0-0.4-0.3-0.6-0.6-0.6h-10.3h-3.9c-0.7,0-0.6,0.6-0.2,0.8c1.6,0.6,4.1,2.5,4.1,6.3h0v38.2
		c0,2.9,2.4,5.3,5.5,5.3s5.5-2.4,5.5-5.3V54.8h7.5v-8.3h-7.5V26z"/>
	<path class="st4" d="M467.3,43.1c0.2-3,0.4-5.9,0.4-8.8v-7.5h-56.8v7.9h45.8v4c0,2.6-0.1,4.9-0.3,6.9c-0.2,2.4-0.6,4.9-1,6.8h-47.7
		v7.8h25.8V71h-22.5v7.8h45.8v16.1h10.9V71h-23.3V60.2h26.5v-7.8h-4.8C466.6,49.8,467,46.5,467.3,43.1"/>
	<path class="st4" d="M542.9,26c0-0.4-0.3-0.6-0.6-0.6h-10.3h0h-3.9c-0.7,0-0.6,0.6-0.2,0.8c1.6,0.6,4.1,2.5,4.1,6.3v46.4h-22.2
		V67.3c3.1-0.6,5.8-1.6,8.2-3.1c3.5-2.2,5.7-5,6.6-8.3c0.9-4.1,0.4-7.7-1.4-10.7c-2-3.4-5.4-5.7-10.3-7h11.4v-7.6h-15.1V25h-10.9
		v5.6h-15.6v7.6h11.3c-4.7,1.4-8,3.7-9.9,7c-1.8,3-2.3,6.5-1.3,10.4c0.9,3.4,3,6.2,6.4,8.5c2.7,1.8,5.9,3,9.6,3.5v11.3H482v7.7h49.9
		V95h10.9V62h7.5v-7.8h-7.5V26z M493.3,51.5c0-2.5,0.8-4.5,2.5-6.1c1.8-1.7,4.4-2.6,7.6-2.6c3.3,0,6,0.9,8,2.8
		c1.8,1.7,2.7,3.8,2.7,6.2c0,2.3-0.9,4.3-2.8,5.9c-2,1.7-4.6,2.6-7.8,2.6c-3.2,0-5.7-0.9-7.6-2.7C494.1,55.9,493.3,53.9,493.3,51.5"
		/>
	<path class="st4" d="M618.5,26c0-0.4-0.3-0.6-0.6-0.6h-10.3v0l0,0h-3.9c-0.7,0-0.6,0.6-0.2,0.8c1.6,0.6,4.1,2.5,4.1,6.3l0,0v27.1
		c0,3,2.4,5.4,5.5,5.4c3,0,5.5-2.4,5.5-5.4v-9.7h7.5v-8h-7.5V26z"/>
	<path class="st4" d="M655.6,65.2c3.8,0,7.2-0.8,10.1-2.3c1.3-0.7,2.6-1.5,3.6-2.5h14.9v12.9c0,3,2.4,5.4,5.5,5.4
		c3,0,5.5-2.4,5.5-5.4V26c0-0.4-0.3-0.6-0.6-0.6h-10.3v0l0,0h-3.9c-0.7,0-0.6,0.6-0.2,0.8c1.6,0.6,4.1,2.5,4.1,6.3l0,0v1.2h-11.5
		c-1.7-2.7-4-4.8-6.7-6.3c-3-1.5-6.5-2.3-10.4-2.3c-6.5,0-11.6,2.1-15.3,6.2c-3.4,3.7-5,8.4-5,14c0,5.5,1.7,10.1,5,13.8
		C644,63.1,649.1,65.2,655.6,65.2 M675.6,48.9c0.2-1.3,0.4-2.5,0.4-3.8c0-0.8,0-1.4-0.1-1.8c0-0.7-0.2-1.3-0.3-1.8h8.7v11.1h-9.7
		C675,51.4,675.3,50.2,675.6,48.9 M648.5,36.6c1.7-2.5,4-3.8,7.1-3.8c3,0,5.3,1.3,7,3.8c1.6,2.3,2.4,5.1,2.4,8.6
		c0,3.4-0.8,6.3-2.4,8.5c-1.7,2.5-4,3.8-7,3.8c-3.1,0-5.4-1.3-7.1-3.8c-1.5-2.3-2.3-5.1-2.3-8.5C646.2,41.7,647,38.8,648.5,36.6"/>
	<path class="st4" d="M651.3,70.9h-10.9v19.7c0,2,1.6,3.7,3.7,3.7h51.7v-7.8h-44.4V70.9z"/>
	<path class="st4" d="M765.5,49.6c0.3-2.8,0.4-6,0.4-9.9v-13h-56.8v7.8H755v8.3c0,3.2-0.1,6-0.4,8.5c-0.3,2.9-0.8,5.6-1.4,8.3H706
		v7.8h25.3V95h10.9V67.4h27v-7.8h-5.5C764.6,56.6,765.2,53.3,765.5,49.6"/>
	<path class="st4" d="M796.1,69.9H807V59h23.4v3.8h-12.3v7.8h12.3v3.5c0,3,2.4,5.4,5.5,5.4c3,0,5.5-2.4,5.5-5.4V26
		c0-0.4-0.3-0.6-0.6-0.6h-10.3h0h-3.9c-0.7,0-0.6,0.6-0.2,0.8c1.6,0.6,4.1,2.5,4.1,6.3h0v18.9h-14.6c0.9-0.5,1.7-1,2.5-1.6
		c3.5-2.7,5.2-6.1,5.2-10.1c0-4.1-1.8-7.5-5.2-10.1c-3.9-3-9.2-4.5-16-4.5s-12.1,1.5-16,4.5c-3.5,2.7-5.2,6-5.2,10.1
		c0,4,1.7,7.4,5.2,10.1c0.8,0.6,1.6,1.1,2.5,1.6h-9.4V59h16.6V69.9z M794.6,34.7c1.9-1.4,4.5-2,7.8-2c3.4,0,6,0.7,7.8,2
		c1.7,1.3,2.5,2.9,2.5,4.9c0,1.9-0.8,3.4-2.5,4.6c-1.9,1.4-4.5,2.1-7.8,2.1c-3.3,0-5.9-0.7-7.8-2.1c-1.6-1.2-2.4-2.8-2.4-4.6
		C792.1,37.7,793,36,794.6,34.7"/>
	<path class="st4" d="M797.5,86.5V73.7h-10.9v16.9c0,2,1.6,3.7,3.7,3.7h51.7v-7.8H797.5z"/>
	<path class="st4" d="M352.2,67.8c5.8,0,10.6-1.2,14.5-3.7c3.5-2.2,5.7-5,6.6-8.3c0.9-4.1,0.4-7.7-1.4-10.7c-2-3.4-5.4-5.7-10.3-7
		H373v-7.6H358V25H347v5.6h-15.6v7.6h11.3c-4.7,1.4-8,3.7-9.9,7c-1.8,3-2.3,6.5-1.3,10.4c0.9,3.4,3,6.2,6.4,8.5
		C341.8,66.6,346.5,67.8,352.2,67.8 M344.6,45.4c1.8-1.7,4.4-2.6,7.6-2.6c3.3,0,6,0.9,8,2.8c1.8,1.7,2.7,3.8,2.7,6.2
		c0,2.3-0.9,4.3-2.8,5.9c-2,1.7-4.6,2.6-7.8,2.6c-3.2,0-5.7-0.9-7.6-2.7c-1.7-1.6-2.5-3.7-2.5-6.1C342.1,49,342.9,47,344.6,45.4"/>
	<path class="st4" d="M579,67.8c5.8,0,10.6-1.2,14.5-3.7c3.5-2.2,5.7-5,6.6-8.3c0.9-4.1,0.4-7.7-1.4-10.7c-2-3.4-5.4-5.7-10.3-7
		h11.4v-7.6h-15.1V25h-10.9v5.6h-15.6v7.6h11.3c-4.7,1.4-8,3.7-9.9,7c-1.8,3-2.3,6.5-1.3,10.4c0.9,3.4,3,6.2,6.4,8.5
		C568.6,66.6,573.4,67.8,579,67.8 M571.4,45.4c1.8-1.7,4.4-2.6,7.6-2.6c3.3,0,6,0.9,8,2.8c1.8,1.7,2.7,3.8,2.7,6.2
		c0,2.3-0.9,4.3-2.8,5.9c-2,1.7-4.6,2.6-7.8,2.6c-3.2,0-5.7-0.9-7.6-2.7c-1.7-1.6-2.5-3.7-2.5-6.1C568.9,49,569.7,47,571.4,45.4"/>
	<polygon class="st4" points="563.5,78.7 607.6,78.7 607.6,94.9 618.5,94.9 618.5,70.9 563.5,70.9 	"/>
	<path class="st4" d="M257.7,25.5v12.1c0,0.3,0.3,0.6,0.6,0.6h20.3c0.1,0,0.2,0.1,0.2,0.2v48.3c0,4.7,3.8,8.5,8.5,8.5
		c4.7,0,8.5-3.8,8.5-8.5V38.2c0-0.1,0.1-0.2,0.2-0.2h20.4c0.3,0,0.6-0.3,0.6-0.6V25.5c0-0.3-0.3-0.6-0.6-0.6h-58.1
		C257.9,24.8,257.7,25.1,257.7,25.5"/>
	<path class="st4" d="M152.8,24.8h-7.5c-1.3,0-1.2,1.2-0.4,1.6c3,1.2,8,5,8,12.2l0,0v48c0,4.4,3.2,8.3,7.6,8.7
		c5,0.5,9.2-3.5,9.2-8.4V25.5c0-0.4-0.3-0.7-0.7-0.7H152.8z"/>
	<path class="st4" d="M144,93.2l-22.5-27.8c7.7-1.4,16.1-8.6,16.1-19.4c0-13.2-8.8-21.1-21.2-21.1H74c-1.1,0-1.2,1.2-0.4,1.5
		c3,1.2,7.9,5,7.9,12.2v47.8c0,4.5,3.3,8.4,7.7,8.8c5.1,0.5,9.3-3.5,9.3-8.5V62.4c0-0.1,0.1-0.2,0.2-0.2c0.1,0,0.2,0,0.3,0.1
		L124,94.1c0.1,0.2,0.3,0.3,0.6,0.3h18.9c0.3,0,0.5-0.2,0.6-0.4C144.2,93.7,144.2,93.4,144,93.2 M98.8,53.8c-0.1,0-0.2-0.1-0.2-0.2
		V38.5c0-0.1,0.1-0.2,0.2-0.2h17.7c3.9,0,7,4,7,7.8c0,4-3.3,7.8-6.9,7.8H98.8z"/>
	<path class="st8" d="M209.5,20.7c3.2-0.8,6.5-1.2,10-1.2c13.5,0,25.6,6.6,33,17.2c0.2,0.2,0.1,0.6-0.1,0.8l-13.9,9.3
		c-0.2,0.2-0.6,0.1-0.7-0.1c-4.2-5.8-10.9-9.4-18.3-9.4c-12.4,0-22.5,10-22.5,22.5c0,12.5,10.1,22.5,22.5,22.5
		c7.5,0,14.2-3.7,18.3-9.4c0.2-0.2,0.5-0.3,0.7-0.1l13.9,9.3c0.3,0.2,0.3,0.5,0.1,0.8c-7.4,10.6-19.6,17.2-33,17.2
		c-20.9,0-38.2-15.9-40.1-36.5c-0.4-4.9-0.1-9.8,1.3-14.7c-2.9-4.4-2.9-10.2,0.3-14.6c4-5.6,11.5-6.9,17.1-3.5
		c2.3-3.1,5.8-5.2,9.8-5.5c0,0,0-1.5,0.1-2.4C208.2,21.9,209.5,20.7,209.5,20.7"/>
	<path class="st0" d="M150.9,9.4c0-5.2,4.2-9.4,9.4-9.4c5.2,0,9.4,4.2,9.4,9.4c0,5.2-4.2,9.4-9.4,9.4
		C155.1,18.8,150.9,14.6,150.9,9.4"/>
	<path class="st3" d="M204.3,41.6c0,0.5,0,1-0.1,1.5c-1.7,1.6-3.2,3.5-4.4,5.5c-2.7-2.5-4.4-6-4.4-10c0-3,1-5.8,2.6-8.1
		C201.8,32.9,204.3,37,204.3,41.6"/>
	<path class="st3" d="M222.6,37.4c-1-0.1-2.1-0.2-3.1-0.2c-1.2,0-2.3,0.1-3.4,0.3c-4.7-2.1-8-6.8-8.1-12.3
		C215.4,24.5,221.9,30.1,222.6,37.4"/>
	<path class="st5" d="M227.2,89.8c-1.7,0-3.4,0.2-5,0.7c0.7,3.4,2.3,6.4,4.6,8.9c4.7-0.9,9-2.5,13-4.8
		C236.4,91.6,232,89.8,227.2,89.8"/>
	<path class="st7" d="M235.8,24.8c0,6.3-4.2,11.6-9.9,13.3c4.9,1.4,9,4.5,11.9,8.5c0.2,0.2,0.5,0.3,0.7,0.1l13.9-9.3
		c0.3-0.2,0.3-0.5,0.1-0.8c-4.2-6-10.1-10.9-16.9-13.9C235.7,23.4,235.8,24.1,235.8,24.8"/>
	<path class="st0" d="M197.5,10.2l6.1,3.5c0.3,0.2,0.5,0.5,0.5,0.8l0,7c0,0.3-0.2,0.6-0.5,0.8l-6.1,3.5c-0.3,0.2-0.6,0.2-0.9,0
		l-6.1-3.5c-0.3-0.2-0.5-0.5-0.5-0.8l0-7c0-0.3,0.2-0.6,0.5-0.8l6.1-3.5C196.9,10,197.2,10,197.5,10.2"/>
	<path class="st0" d="M183.5,16.5c0,2.6-2.1,4.8-4.8,4.8s-4.8-2.1-4.8-4.8c0-2.6,2.1-4.8,4.8-4.8S183.5,13.9,183.5,16.5"/>
	<path class="st0" d="M191.1,8.1c0,2.1-1.7,3.8-3.8,3.8c-2.1,0-3.8-1.7-3.8-3.8s1.7-3.8,3.8-3.8C189.4,4.3,191.1,6,191.1,8.1"/>
	<path class="st6" d="M252.4,82l-13.9-9.3c-0.2-0.2-0.6-0.1-0.7,0.1c-3.6,5-9.2,8.5-15.6,9.2c-0.3,1.4-0.5,2.8-0.5,4.2
		c0,1.4,0.2,2.9,0.5,4.2c1.6-0.4,3.3-0.7,5-0.7c4.8,0,9.2,1.8,12.5,4.7c5.1-3,9.4-7,12.7-11.7C252.7,82.5,252.6,82.2,252.4,82"/>
	<path class="st6" d="M226.8,99.3c-2.2-2.5-3.8-5.5-4.6-8.9c-4.8,1.3-8.9,4.4-11.4,8.6c2.8,0.6,5.7,0.9,8.6,0.9
		C222,100,224.4,99.8,226.8,99.3"/>
	<path class="st8" d="M198.1,66.8c-3.5-2.6-7.9-4.1-12.6-4.1c-2.1,0-4.1,0.3-6.1,0.9c1.4,14.7,10.7,27.1,23.5,32.9
		c4-5.6,4.9-12.6,3-18.8C202.3,75,199.5,71.2,198.1,66.8"/>
	<path class="st1" d="M221.8,86.3c0-1.4,0.2-2.8,0.5-4.2c-0.9,0.1-1.8,0.2-2.8,0.2c-5.1,0-9.8-1.7-13.6-4.5c1.9,6.1,1,13.1-3,18.8
		c2.5,1.1,5.2,2,8,2.6c2.5-4.2,6.6-7.3,11.4-8.6C221.9,89.1,221.8,87.7,221.8,86.3"/>
	<path class="st2" d="M185.5,62.6c4.7,0,9.1,1.5,12.6,4.1c-0.7-2.2-1.1-4.6-1.1-7c0-2.5,0.4-4.8,1.1-7.1c-1.9,1.2-4.2,1.9-6.7,1.9
		c-4.5,0-8.4-2.3-10.7-5.7c-1,3.5-1.5,7.2-1.5,11c0,1.3,0.1,2.5,0.2,3.8C181.3,62.9,183.3,62.6,185.5,62.6"/>
	<path class="st2" d="M204.2,43.2c0.1-0.5,0.1-1,0.1-1.5c0-4.7-2.5-8.7-6.2-11c2.3-3.1,5.8-5.2,9.8-5.5c0.1,5.5,3.4,10.2,8.1,12.3
		C211.5,38.1,207.4,40.2,204.2,43.2"/>
	<path class="st2" d="M235.8,24.8c0,6.3-4.2,11.6-9.9,13.3c-1.1-0.3-2.1-0.5-3.2-0.7c-0.7-7.3-7.2-12.9-14.7-12.3c0-1,0.1-2,0.2-3
		c0.1-0.7,0.7-1.3,1.3-1.4c3.2-0.8,6.5-1.2,10-1.2c5.7,0,11.2,1.2,16.2,3.4C235.7,23.4,235.8,24.1,235.8,24.8"/>
	<path class="st0" d="M199.8,48.7c-0.7,1.2-1.3,2.6-1.7,4c-1.9,1.2-4.2,1.9-6.7,1.9c-4.5,0-8.4-2.3-10.7-5.7
		c-2.9-4.4-2.9-10.2,0.3-14.6c2.3-3.3,6.2-5.4,10.5-5.4c2.4,0,4.7,0.7,6.7,1.9c-1.7,2.3-2.6,5-2.6,8.1
		C195.5,42.6,197.1,46.2,199.8,48.7"/>
	<path class="st4" d="M70.7,93.2L43.4,58.7c-0.1-0.1-0.1-0.2,0-0.3L66.9,26c0.4-0.5,0-1.1-0.6-1.1H50c-0.3,0-0.7,0.1-0.9,0.4
		L25.9,57.8c-0.1,0.2-0.4,0.1-0.4-0.1V25.6c0-0.4-0.3-0.7-0.7-0.7H0.9c-1,0-1.2,1.2-0.4,1.5c3,1.2,7.9,5,7.9,12.2v47.9
		c0,4.7,3.7,8.7,8.3,8.8c4.8,0.1,8.7-3.8,8.7-8.5V62.9c0-0.1,0.1-0.2,0.2-0.2c0.1,0,0.2,0,0.3,0.1l24.4,31.3
		c0.1,0.2,0.3,0.3,0.6,0.3h19.3c0.3,0,0.5-0.1,0.6-0.4C70.9,93.7,70.9,93.4,70.7,93.2"/>
</g>
</svg>
